<svg width="28" height="28" viewBox="0 0 28 28" fill="none" xmlns="http://www.w3.org/2000/svg">
<path fill-rule="evenodd" clip-rule="evenodd" d="M20.7445 7.25551C20.826 7.33679 20.8906 7.43334 20.9348 7.53965C20.9789 7.64595 21.0016 7.75992 21.0016 7.87501C21.0016 7.9901 20.9789 8.10406 20.9348 8.21037C20.8906 8.31667 20.826 8.41323 20.7445 8.49451L8.49451 20.7445C8.33021 20.9088 8.10736 21.0011 7.87501 21.0011C7.64265 21.0011 7.41981 20.9088 7.25551 20.7445C7.0912 20.5802 6.9989 20.3574 6.9989 20.125C6.9989 19.8926 7.0912 19.6698 7.25551 19.5055L19.5055 7.25551C19.5868 7.17402 19.6833 7.10937 19.7896 7.06526C19.896 7.02115 20.0099 6.99844 20.125 6.99844C20.2401 6.99844 20.3541 7.02115 20.4604 7.06526C20.5667 7.10937 20.6632 7.17402 20.7445 7.25551Z" fill="#1673C8"/>
<path fill-rule="evenodd" clip-rule="evenodd" d="M7.25548 7.25551C7.17399 7.33679 7.10934 7.43334 7.06523 7.53965C7.02112 7.64595 6.99841 7.75992 6.99841 7.87501C6.99841 7.9901 7.02112 8.10406 7.06523 8.21037C7.10934 8.31667 7.17399 8.41323 7.25548 8.49451L19.5055 20.7445C19.6698 20.9088 19.8926 21.0011 20.125 21.0011C20.3573 21.0011 20.5802 20.9088 20.7445 20.7445C20.9088 20.5802 21.0011 20.3574 21.0011 20.125C21.0011 19.8926 20.9088 19.6698 20.7445 19.5055L8.49448 7.25551C8.4132 7.17402 8.31664 7.10937 8.21034 7.06526C8.10403 7.02115 7.99007 6.99844 7.87498 6.99844C7.75988 6.99844 7.64592 7.02115 7.53962 7.06526C7.43331 7.10937 7.33676 7.17402 7.25548 7.25551Z" fill="#1673C8"/>
</svg>
