<svg width="24" height="24" viewBox="0 0 24 24" fill="none" xmlns="http://www.w3.org/2000/svg">
<g clip-path="url(#clip0_3019_92)">
<path d="M7.5 23.501H0.5C0.367392 23.501 0.240215 23.4483 0.146447 23.3545C0.0526784 23.2608 0 23.1336 0 23.001V11.001C0 10.8684 0.0526784 10.7412 0.146447 10.6474C0.240215 10.5537 0.367392 10.501 0.5 10.501H7.5C7.63261 10.501 7.75979 10.5537 7.85355 10.6474C7.94732 10.7412 8 10.8684 8 11.001V23.001C8 23.1336 7.94732 23.2608 7.85355 23.3545C7.75979 23.4483 7.63261 23.501 7.5 23.501ZM1 22.501H7V11.501H1V22.501Z" fill="#C8161D"/>
<path d="M19.75 22.501H10.5C9.57495 22.501 7.89495 22.103 7.14595 21.355C7.05487 21.2607 7.00448 21.1344 7.00562 21.0033C7.00675 20.8722 7.05934 20.7468 7.15204 20.6541C7.24475 20.5614 7.37015 20.5088 7.50125 20.5076C7.63235 20.5065 7.75865 20.5569 7.85295 20.648C8.32595 21.121 9.68695 21.502 10.499 21.502H19.749C20.438 21.502 20.999 20.941 20.999 20.252C20.999 19.908 20.859 19.586 20.604 19.345C20.5347 19.2797 20.4855 19.196 20.4623 19.1037C20.439 19.0115 20.4426 18.9145 20.4727 18.8242C20.5028 18.7339 20.558 18.6541 20.632 18.5941C20.7059 18.5342 20.7954 18.4967 20.89 18.486C21.1942 18.4519 21.4753 18.3073 21.6799 18.0796C21.8845 17.852 21.9984 17.5571 22 17.251C22 16.907 21.86 16.585 21.605 16.344C21.5357 16.2787 21.4865 16.195 21.4633 16.1027C21.44 16.0105 21.4436 15.9135 21.4737 15.8232C21.5038 15.7329 21.559 15.6531 21.6329 15.5931C21.7069 15.5332 21.7964 15.4957 21.891 15.485C22.195 15.4511 22.476 15.3067 22.6804 15.0792C22.8849 14.8516 22.9986 14.5569 23 14.251C23 13.785 22.738 13.361 22.316 13.145C22.2364 13.1051 22.1691 13.0447 22.1209 12.97C22.0727 12.8952 22.0454 12.8089 22.0419 12.72C22.0385 12.6311 22.0589 12.543 22.1011 12.4647C22.1433 12.3864 22.2058 12.3209 22.282 12.275C22.731 11.997 23 11.521 23 11.001C23 10.174 22.327 9.50098 21.5 9.50098H14.5C14.4192 9.50057 14.3397 9.48068 14.2682 9.44298C14.1968 9.40528 14.1355 9.35089 14.0895 9.28444C14.0436 9.21799 14.0144 9.14142 14.0043 9.06126C13.9943 8.9811 14.0038 8.8997 14.032 8.82398C14.042 8.79698 15 6.25998 15 4.50098C15 2.86398 13.548 1.50098 13 1.50098C12.569 1.50098 12.208 1.65798 12 1.77298V5.00098C11.9999 5.07314 11.9842 5.14444 11.954 5.20998L8.95395 11.71C8.90613 11.8128 8.82513 11.8967 8.72395 11.948L7.72395 12.448C7.66519 12.4773 7.60121 12.4948 7.53569 12.4994C7.47016 12.5041 7.40437 12.4957 7.34206 12.4749C7.27975 12.4541 7.22215 12.4213 7.17255 12.3782C7.12294 12.3352 7.0823 12.2827 7.05295 12.224C7.0236 12.1652 7.00611 12.1012 7.00149 12.0357C6.99686 11.9702 7.00518 11.9044 7.02598 11.8421C7.04678 11.7798 7.07965 11.7222 7.12271 11.6726C7.16578 11.623 7.21819 11.5823 7.27695 11.553L8.11995 11.132L11 4.89098V1.50098C11 1.34898 11.069 1.20598 11.188 1.10998C11.7137 0.722988 12.3472 0.510055 13 0.500977C14.157 0.500977 16 2.33198 16 4.50098C16 5.86898 15.51 7.57198 15.205 8.50098H21.5C22.878 8.50098 24 9.62298 24 11.001C24 11.632 23.765 12.224 23.35 12.676C23.761 13.089 24 13.65 24 14.251C23.9996 14.666 23.8839 15.0728 23.6659 15.426C23.4478 15.7791 23.1359 16.0648 22.765 16.251C23.0291 16.7816 23.0722 17.3953 22.8847 17.9576C22.6973 18.5199 22.2946 18.985 21.765 19.251C21.9343 19.5941 22.0134 19.9746 21.9949 20.3567C21.9765 20.7389 21.861 21.11 21.6594 21.4352C21.4578 21.7603 21.1767 22.0288 20.8426 22.2153C20.5086 22.4017 20.1325 22.5001 19.75 22.501Z" fill="#C8161D"/>
</g>
<defs>
<clipPath id="clip0_3019_92">
<rect width="24" height="24" fill="white"/>
</clipPath>
</defs>
</svg>
