<svg width="24" height="24" viewBox="0 0 24 24" fill="none" xmlns="http://www.w3.org/2000/svg">
<path d="M16.9688 5.11642V3.3047C16.9688 3.14767 16.7883 3.06095 16.6664 3.15704L6.10078 11.4094C6.01101 11.4792 5.93838 11.5686 5.88841 11.6707C5.83844 11.7729 5.81247 11.8851 5.81247 11.9988C5.81247 12.1126 5.83844 12.2248 5.88841 12.3269C5.93838 12.4291 6.01101 12.5185 6.10078 12.5883L16.6664 20.8406C16.7906 20.9367 16.9688 20.85 16.9688 20.693V18.8813C16.9688 18.7664 16.9148 18.6563 16.8258 18.586L8.38828 12L16.8258 5.41173C16.9148 5.34142 16.9688 5.23126 16.9688 5.11642Z" fill="black"/>
</svg>
